<svg viewBox="0 0 280 280" height="280" width="280"><g><svg viewBox="0 0 280 280" height="280" width="280"><g><svg viewBox="0 0 280 280" height="280" width="280"><g id="textblocktransform"><svg viewBox="0 0 280 280" height="280" width="280" id="textblock"><g><svg viewBox="0 0 280 280" height="280" width="280"><g transform="matrix(1,0,0,1,57.50420886156945,57.50420886156945)"><svg viewBox="0 0 164.9915822768611 164.9915822768611" height="164.9915822768611" width="164.9915822768611"><g><circle r="82.49579113843055" cx="82.49579113843055" cy="82.49579113843055" fill="#ffffff" data-fill-palette-color="accent"></circle><svg xmlns="http://www.w3.org/2000/svg" xmlns:xlink="http://www.w3.org/1999/xlink" version="1.1" x="24.74873734152917" y="24.748737341529164" viewBox="9.63800048828125 3.246999979019165 80.7239990234375 93.50699615478516" enable-background="new 0 0 100 100" xml:space="preserve" height="115.49410759380275" width="115.49410759380275" class="icon-o-0" data-fill-palette-color="quaternary" id="o-0"><g fill="#0d47a1" data-fill-palette-color="quaternary"><g fill="#0d47a1" data-fill-palette-color="quaternary"><polygon points="36.703,11.011 9.638,26.636 9.638,38.757 36.703,23.131 63.767,38.757 63.767,26.636   " fill="#0d47a1" data-fill-palette-color="quaternary"></polygon></g><g fill="#0d47a1" data-fill-palette-color="quaternary"><polygon points="63.298,89.092 36.233,73.467 36.233,61.348 63.298,76.973 90.362,61.348 90.362,73.467   " fill="#0d47a1" data-fill-palette-color="quaternary"></polygon></g><g fill="#0d47a1" data-fill-palette-color="quaternary"><polygon points="9.638,42.012 36.703,26.386 47.198,32.446 20.134,48.072 20.134,79.324 9.638,73.264   " fill="#0d47a1" data-fill-palette-color="quaternary"></polygon></g><g fill="#0d47a1" data-fill-palette-color="quaternary"><polygon points="77.083,18.872 50.018,3.247 39.522,9.307 66.586,24.932 66.586,56.184 77.083,50.124   " fill="#0d47a1" data-fill-palette-color="quaternary"></polygon></g><g fill="#0d47a1" data-fill-palette-color="quaternary"><polygon points="23.01,81.127 23.011,49.876 33.507,43.816 33.507,75.068 60.571,90.693 50.075,96.754   " fill="#0d47a1" data-fill-palette-color="quaternary"></polygon></g><g fill="#0d47a1" data-fill-palette-color="quaternary"><polygon points="90.362,58.092 90.362,26.84 79.866,20.78 79.866,52.031 52.802,67.658 63.298,73.719   " fill="#0d47a1" data-fill-palette-color="quaternary"></polygon></g></g></svg></g></svg></g><g><path d="M29.763 107.538l-29.212-3.909 1.913-4.439 19.724 2.832c0.71 0.093 2.126 0.358 4.248 0.794v0l0.085-0.196-3.563-2.385-15.956-11.569 2.423-5.621 19.415 3.548c0.807 0.142 2.206 0.447 4.196 0.915v0l0.084-0.195c-1.749-1.232-2.914-2.08-3.494-2.544v0l-15.632-12.323 1.749-4.057 22.898 18.556-2.278 5.286-19.575-3.484c-1.083-0.202-2.552-0.523-4.408-0.962v0l-0.084 0.195c1.753 1.087 3.006 1.91 3.758 2.47v0l15.988 11.803z" fill="#ffffff" data-fill-palette-color="primary"></path><path d="M61.759 56.814l-17.543-22.3 17.298-13.608 2.431 3.09-13.691 10.77 4.938 6.276 12.257-9.643 2.425 3.083-12.258 9.642 5.319 6.762 13.882-10.921 2.431 3.091z" fill="#ffffff" data-fill-palette-color="primary"></path><path d="M109.443 30.753l-5.466-27.842 13.473-2.646c2.897-0.569 5.257-0.223 7.081 1.037 1.816 1.254 2.987 3.221 3.513 5.899v0c0.527 2.685 0.155 4.978-1.117 6.88-1.264 1.907-3.318 3.14-6.162 3.699v0l-8.85 1.737 2.033 10.351zM111.158 15.659l8.691-1.706c1.432-0.281 2.473-0.94 3.123-1.977 0.656-1.044 0.832-2.339 0.528-3.883v0c-0.302-1.538-0.927-2.651-1.874-3.339-0.953-0.68-2.185-0.872-3.697-0.576v0l-8.69 1.707z" fill="#ffffff" data-fill-palette-color="primary"></path><path d="M163.936 29.134l7.379-27.397 4.433 1.194-6.346 23.561 14.256 3.84-1.033 3.836z" fill="#ffffff" data-fill-palette-color="primary"></path><path d="M210.169 50.163l18.593-21.433 16.625 14.423-2.576 2.97-13.158-11.415-5.233 6.032 11.781 10.219-2.57 2.963-11.781-10.22-5.637 6.499 13.342 11.574-2.577 2.97z" fill="#ffffff" data-fill-palette-color="primary"></path><path d="M243.556 89.146l17.71 4.728 9.14-13.953 2.013 5.251-6.701 10.012 0.12 0.313 11.686 2.998 1.925 5.025-16.048-4.301-10.077 15.419-1.998-5.214 7.708-11.548-0.102-0.265-13.451-3.44z" fill="#ffffff" data-fill-palette-color="primary"></path><path d="M9.785 189.201l22.898-18.556 1.914 4.439-15.6 12.397c-0.555 0.453-1.72 1.301-3.494 2.544v0l0.084 0.195 4.18-0.952 19.367-3.66 2.423 5.621-15.909 11.681c-0.657 0.489-1.839 1.297-3.546 2.422v0l0.085 0.196c2.097-0.426 3.513-0.691 4.248-0.795v0l19.691-2.905 1.75 4.057-29.213 3.909-2.279-5.285 15.973-11.841c0.89-0.649 2.132-1.497 3.725-2.544v0l-0.084-0.195c-1.994 0.529-3.452 0.874-4.376 1.036v0l-19.558 3.522z" fill="#ffffff" data-fill-palette-color="primary"></path><path d="M48.307 248.412l17.543-22.301 17.299 13.609-2.431 3.09-13.691-10.77-4.937 6.276 12.257 9.642-2.424 3.082-12.258-9.642-5.319 6.762 13.882 10.92-2.431 3.09z" fill="#ffffff" data-fill-palette-color="primary"></path><path d="M105.252 278.722l5.466-27.842 13.474 2.646c2.897 0.569 4.951 1.781 6.163 3.637 1.207 1.848 1.547 4.111 1.022 6.789v0c-0.527 2.685-1.739 4.667-3.636 5.947-1.891 1.288-4.259 1.653-7.103 1.094v0l-8.849-1.738-2.033 10.352zM112.546 265.397l8.691 1.707c1.432 0.281 2.645 0.065 3.638-0.649 1.002-0.719 1.654-1.851 1.958-3.395v0c0.302-1.538 0.144-2.805-0.473-3.801-0.625-0.99-1.693-1.634-3.204-1.93v0l-8.691-1.706z" fill="#ffffff" data-fill-palette-color="primary"></path><path d="M169.594 280l-7.379-27.397 4.433-1.194 6.346 23.562 14.256-3.84 1.033 3.835z" fill="#ffffff" data-fill-palette-color="primary"></path><path d="M224.425 254.398l-18.593-21.433 16.626-14.423 2.576 2.97-13.158 11.415 5.233 6.032 11.78-10.22 2.57 2.963-11.78 10.219 5.637 6.499 13.342-11.574 2.577 2.97z" fill="#ffffff" data-fill-palette-color="primary"></path><path d="M263.871 206.766l-10.015-15.352-16.124 4.271 2.012-5.251 11.676-2.971 0.119-0.312-6.69-10.04 1.926-5.025 9.065 13.924 17.8-4.736-1.998 5.213-13.451 3.441-0.102 0.265 7.708 11.548z" fill="#ffffff" data-fill-palette-color="primary"></path><path d="M9.056 144.063c0-1.796 1.456-3.252 3.251-3.251 1.796 0 3.252 1.456 3.252 3.251 0 1.796-1.456 3.252-3.252 3.252-1.796 0-3.252-1.456-3.251-3.252z" fill="#ffffff" data-fill-palette-color="primary"></path><path d="M264.423 144.063c0-1.796 1.456-3.252 3.252-3.251 1.796 0 3.252 1.456 3.251 3.251 0 1.796-1.456 3.252-3.251 3.252-1.796 0-3.252-1.456-3.252-3.252z" fill="#ffffff" data-fill-palette-color="primary"></path></g></svg></g></svg></g></svg></g><g></g></svg></g><defs></defs></svg>
